<svg xmlns="http://www.w3.org/2000/svg" width="256" height="256" viewBox="0 0 256 256" role="img" aria-label="UnionPay (stylized)">
  <defs>
    <linearGradient id="ubg" x1="0" y1="0" x2="1" y2="1">
      <stop offset="0" stop-color="#233A6C"/>
      <stop offset="1" stop-color="#0B1638"/>
    </linearGradient>
    <filter id="shadow" x="-30%" y="-30%" width="160%" height="160%">
      <feDropShadow dx="0" dy="10" stdDeviation="12" flood-color="rgba(0,0,0,0.36)"/>
    </filter>
  </defs>

  <rect x="20" y="44" width="216" height="168" rx="28" fill="url(#ubg)" filter="url(#shadow)"/>

  <!-- Ribbon blocks (brand-like feel, original geometry) -->
  <g opacity="0.96">
    <path d="M48 90 h84 a16 16 0 0 1 16 16 v28 a16 16 0 0 1 -16 16 H48 a16 16 0 0 1 -16 -16 v-28 a16 16 0 0 1 16 -16 z"
          fill="#2E6BFF"/>
    <path d="M92 78 h92 a16 16 0 0 1 16 16 v52 a16 16 0 0 1 -16 16 H92 a16 16 0 0 1 -16 -16 V94 a16 16 0 0 1 16 -16 z"
          fill="#19C37D" opacity="0.9"/>
    <path d="M120 96 h88 a16 16 0 0 1 16 16 v28 a16 16 0 0 1 -16 16 h-88 a16 16 0 0 1 -16 -16 v-28 a16 16 0 0 1 16 -16 z"
          fill="#FF5A3D" opacity="0.9"/>
    <path d="M80 94 h128" stroke="rgba(255,255,255,0.20)" stroke-width="4" stroke-linecap="round"/>
  </g>

  <text x="128" y="196"
        font-family="ui-sans-serif, system-ui, -apple-system, Segoe UI, Roboto, Arial"
        font-size="28" font-weight="900" letter-spacing="2"
        text-anchor="middle" fill="rgba(255,255,255,0.92)">UNIONPAY</text>
</svg>

